<svg width="47" height="47" viewBox="0 0 47 47" fill="none" xmlns="http://www.w3.org/2000/svg">
<path d="M24.9961 7.76758L26.1494 10.1797L28.1377 8.39258L30.7178 6.07227L30.9033 9.53809L31.0449 12.208L33.5664 11.3174L36.8379 10.1611L35.6826 13.4336L34.792 15.9551L37.4619 16.0967L40.9268 16.2812L38.6074 18.8623L36.8203 20.8506L39.2324 22.0039L42.3613 23.5L39.2324 24.9961L36.8203 26.1494L38.6074 28.1377L40.9268 30.7178L37.4619 30.9033L34.792 31.0449L35.6826 33.5664L36.8379 36.8379L33.5664 35.6826L31.0449 34.792L30.9033 37.4619L30.7178 40.9268L28.1377 38.6074L26.1494 36.8203L24.9961 39.2324L23.5 42.3613L22.0039 39.2324L20.8506 36.8203L18.8623 38.6074L16.2812 40.9268L16.0967 37.4619L15.9551 34.792L13.4336 35.6826L10.1611 36.8379L11.3174 33.5664L12.208 31.0449L9.53809 30.9033L6.07227 30.7178L8.39258 28.1377L10.1797 26.1494L7.76758 24.9961L4.6377 23.5L7.76758 22.0039L10.1797 20.8506L8.39258 18.8623L6.07227 16.2812L9.53809 16.0967L12.208 15.9551L11.3174 13.4336L10.1611 10.1611L13.4336 11.3174L15.9551 12.208L16.0967 9.53809L16.2812 6.07227L18.8623 8.39258L20.8506 10.1797L22.0039 7.76758L23.5 4.6377L24.9961 7.76758Z" stroke="#D55027" stroke-width="4"/>
</svg>
