<svg width="47" height="47" viewBox="0 0 47 47" fill="none" xmlns="http://www.w3.org/2000/svg">
<path d="M24.3809 17.8926L24.8398 20.7178L27.335 19.3154L32.1221 16.624L28.4336 20.6924L26.5107 22.8125L29.1631 23.8887L34.2529 25.9541L28.7715 25.6064L25.9141 25.4258L26.7266 28.1699L28.2842 33.4355L25.1396 28.9346L23.5 26.5879L21.8604 28.9346L18.7148 33.4355L20.2734 28.1699L21.0859 25.4258L18.2285 25.6064L12.7461 25.9541L17.8369 23.8887L20.4893 22.8125L18.5664 20.6924L14.877 16.624L19.665 19.3154L22.1602 20.7178L22.6191 17.8926L23.5 12.4697L24.3809 17.8926Z" stroke="#D55027" stroke-width="4"/>
</svg>
